ModelForces
version=1
nRows=4
nColumns=94
inDegrees=yes

This file contains the forces exerted on a model during a simulation.

A force is a generalized force, meaning that it can be either a force (N) or a torque (Nm).

Units are S.I. units (second, meters, Newtons, ...)
Angles are in degrees.

endheader 
time	addbrev_l	addlong_l	addmagDist_l	addmagIsch_l	addmagMid_l	addmagProx_l	bflh_l	bfsh_l	edl_l	ehl_l	fdl_l	fhl_l	gaslat_l	gasmed_l	glmax1_l	glmax2_l	glmax3_l	glmed1_l	glmed2_l	glmed3_l	glmin1_l	glmin2_l	glmin3_l	grac_l	iliacus_l	perbrev_l	perlong_l	piri_l	psoas_l	recfem_l	sart_l	semimem_l	semiten_l	soleus_l	tfl_l	tibant_l	tibpost_l	vasint_l	vaslat_l	vasmed_l	addbrev_r	addlong_r	addmagDist_r	addmagIsch_r	addmagMid_r	addmagProx_r	bflh_r	bfsh_r	edl_r	ehl_r	fdl_r	fhl_r	gaslat_r	gasmed_r	glmax1_r	glmax2_r	glmax3_r	glmed1_r	glmed2_r	glmed3_r	glmin1_r	glmin2_r	glmin3_r	grac_r	iliacus_r	perbrev_r	perlong_r	piri_r	psoas_r	recfem_r	sart_r	semimem_r	semiten_r	soleus_r	tfl_r	tibant_r	tibpost_r	vasint_r	vaslat_r	vasmed_r	lumbar_extension	lumbar_bending	lumbar_rotation	arm_flex_l	arm_add_l	arm_rot_l	arm_flex_r	arm_add_r	arm_rot_r	elbow_flex_l	elbow_flex_r	pro_sup_l	pro_sup_r	
          4.70000000	         16.71462300	         25.63007616	          7.41354924	          6.07065487	          9.43435948	         27.81438018	         57.47823337	        341.99920425	        166.06884067	         40.64432324	          4.00389197	          6.55838122	        162.34781678	        376.55423532	         99.48855391	         75.85655336	         29.98254819	         10.38475385	        161.32642744	        597.88492174	          3.66638088	         20.22251196	        208.58021803	          6.71249573	         13.06627451	         94.77979100	        125.99843031	        340.23549285	        200.00918633	        154.41402528	        208.10807487	        204.75563981	         12.32628914	          5.16075661	         79.58999670	        453.58225004	         14.72936040	         20.10232621	         59.44669335	         29.59382737	         38.09178403	         74.66435397	         43.74766953	         28.94336087	         40.47057667	         35.43265348	        113.98760672	         45.48875035	         92.91649266	         21.19652722	          5.46034981	         22.81344617	         22.04577921	         33.80438999	         38.22234698	         64.65077891	        183.54706680	         18.96978691	         13.39759802	         73.83625319	          6.11882595	         23.02698406	         40.20874299	         25.90628618	        131.39255925	         30.78142316	         59.91066786	         22.14604983	        269.37194472	         19.97546858	         23.77312088	         21.90889204	         51.89413841	        135.26896365	         12.67733380	        168.55306819	         15.15110342	         23.12152949	         66.37547311	         33.69568001	         38.47724604	       -109.71430899	        -54.57987813	         74.27865595	        -88.93577711	        -15.23382833	          4.90055451	         -7.77118814	        -20.80247085	          1.78195957	         11.69664490	         -1.98083592	         -0.77990108	
          4.71000000	         13.33392810	         20.33234493	          6.14481573	          6.09256368	          7.69606782	         22.50579516	         46.48755676	        274.95534503	        185.39125998	         32.69482670	          3.50564607	          6.17049278	        141.17125683	        352.88164968	         84.48110817	         64.51566378	         25.17623839	         10.93692252	        120.05879184	        543.76862572	          3.81345587	         18.15480656	        144.64819308	          5.37495066	         10.85197501	         51.21014503	        117.10591881	        387.20259077	        160.58861470	        142.24829722	        192.23597891	        164.49748382	         10.00143208	          0.21486712	         86.88932738	        397.37887035	         13.48594579	         17.53164218	         51.57259327	         25.66442493	         34.04617970	         68.84025590	         36.62421418	         23.99281045	         33.49320619	         28.88560532	         89.52898763	         42.30230069	         96.55890133	          9.72281960	          5.05886258	         19.03203135	         26.26801736	         42.36552699	         30.10439995	         51.71824886	        141.72481858	         19.95685652	         13.30626169	         59.43671679	          6.57362440	         19.96963354	         33.63494381	         24.78750469	        121.78594249	         25.07737552	         49.97945440	        204.45730228	        239.66129027	        147.92695987	         20.51330433	         18.85617511	         47.27210406	        133.17642755	         11.77671357	        173.17330475	         13.17642022	         20.30223878	         57.66598544	         30.12295259	         21.37712821	        -96.45018634	        -54.36650658	         89.48103412	       -106.57295201	        -50.82385621	        -11.50000622	        -43.11064775	         22.46815621	         -0.48149273	         11.12421688	         -3.50142028	          0.93232668	
          4.72000000	         10.05143622	         15.03372723	          5.81726623	          6.02349660	          6.02415678	         17.46021943	         37.46160915	        240.57280452	        157.51210842	         25.54376317	          4.80631314	          6.93035175	        120.10399813	        280.31014515	         72.58340702	         55.47655419	         20.98752764	         12.06401799	        162.40333132	        552.01191644	          4.15858285	         10.73420918	        169.93588780	          4.20237123	          3.50467368	         53.71393553	        102.62607725	        419.56850891	        140.49450381	        120.10559791	        212.41038248	        131.68866744	          8.07759974	          0.25746399	         99.93378932	        336.87913346	         14.88873577	         18.34727062	         53.85305849	         26.73848260	         34.00865704	         71.90910625	         32.93167798	         21.56658561	         30.15387650	         25.14890289	         81.43039344	         39.20422065	         97.80764334	         16.07394126	          2.85966189	         16.17121166	         30.72551950	         54.48856252	         40.41955446	         40.10674283	        114.88296770	         20.29571696	         12.73788985	         45.40453480	          6.89364231	         16.69840976	         26.35817923	         24.92749663	        111.61594456	         23.24409917	         44.17797697	        118.07322219	        213.70666150	        224.14031833	         17.51728976	         18.92332247	         45.66119889	        121.13371491	          0.02914508	        170.61570974	         12.96380603	         30.29543729	         95.36101277	         40.29346092	         22.94886551	       -107.64135299	        -62.17487481	         55.92719156	       -117.47749689	        -33.46268309	         21.25658879	        -24.91027201	         -5.66188444	         36.81221040	         10.00023959	         -2.76928234	         -0.34713235	
          4.73000000	          7.34699582	         10.68088204	          5.62610027	          5.93303684	          4.59899016	         13.18701074	         29.71333090	        235.02394783	        145.92408892	         19.61812401	          3.44407802	          6.21433326	         87.56951380	        199.69319575	         62.37475314	         47.67923996	         17.37938029	         13.53924507	        241.02633973	        580.39692796	          4.65727124	        138.23069328	        195.74107483	          3.24828560	        201.08350587	         45.69467698	         90.49964042	        458.56614094	         55.38439558	        223.25232082	        237.60602119	        104.62991974	          6.49518909	          1.78677146	        116.22115814	        249.94152444	         12.43074908	         19.10909465	         55.94672863	         27.74632947	         34.19184915	         75.19203644	         29.61605560	         19.33232495	         27.19447421	         21.71847439	         76.35312863	         35.42029292	         88.94526896	          0.09086510	          4.91019244	         10.99681075	         32.12850102	         59.75442897	         31.10342706	         31.49116251	         96.29840815	         20.05455367	         11.62849095	         32.46862983	          7.04631947	         13.79055790	         18.40555899	         25.02438693	         96.37349390	         23.96924158	         44.88669767	         99.54418515	        188.55088728	        262.68373623	         14.31315479	         19.52773689	         42.86188607	        111.65351666	         71.48069722	        198.56068566	          3.05227230	         46.42414230	        129.02074013	         90.23221445	         11.96644116	       -119.72518751	        -62.63483687	          3.60776708	       -125.53890507	         13.86522528	         47.85046583	          8.27982355	        -23.85282962	         43.37995857	         13.43465184	         -0.05956803	         -1.29230359	
